<?xml version="1.0" encoding="utf-8"?>
<!-- Generator: Adobe Illustrator 17.1.0, SVG Export Plug-In . SVG Version: 6.00 Build 0)  -->
<!DOCTYPE svg PUBLIC "-//W3C//DTD SVG 1.1//EN" "http://www.w3.org/Graphics/SVG/1.1/DTD/svg11.dtd">
<svg version="1.1" id="Layer_1" xmlns="http://www.w3.org/2000/svg" xmlns:xlink="http://www.w3.org/1999/xlink" x="0px" y="0px"
	 width="100px" height="100px" viewBox="350 270.003 100 100" enable-background="new 350 270.003 100 100" xml:space="preserve">
<g>
	<path d="M399.978,270.003c-27.359,0-49.535,22.453-49.535,50.096c0,27.645,22.176,50.098,49.535,50.098
		c27.358,0,49.579-22.453,49.579-50.098S427.336,270.003,399.978,270.003L399.978,270.003z M399.978,272.532
		c26.04,0,47.119,21.254,47.119,47.567c0,26.314-21.079,47.612-47.119,47.612c-26.042,0-47.076-21.3-47.076-47.612
		S373.937,272.532,399.978,272.532L399.978,272.532z M410.854,320.238l18.577-18.577c0.977-0.974,0.977-2.56,0-3.538l-7.076-7.076
		c-0.977-0.977-2.56-0.977-3.538,0l-18.577,18.577l-18.577-18.577c-0.978-0.977-2.56-0.974-3.538,0l-7.076,7.078
		c-0.977,0.977-0.977,2.56,0,3.538l18.577,18.577l-18.577,18.574c-0.977,0.978-0.977,2.563,0,3.541l7.076,7.076
		c0.977,0.977,2.56,0.974,3.538,0l18.576-18.578l18.577,18.577c0.978,0.977,2.561,0.977,3.538,0l7.076-7.078
		c0.977-0.975,0.977-2.56,0-3.538L410.854,320.238z"/>
</g>
</svg>
