<?xml version="1.0" encoding="utf-8"?>
<!DOCTYPE svg PUBLIC "-//W3C//DTD SVG 1.1//EN" "http://www.w3.org/Graphics/SVG/1.1/DTD/svg11.dtd">
<svg version="1.1" id="Layer_1" xmlns="http://www.w3.org/2000/svg" xmlns:xlink="http://www.w3.org/1999/xlink" x="0px" y="0px"
	 width="404.787px" height="409.197px" viewBox="197.606 115.405 404.787 409.197"
	 enable-background="new 197.606 115.405 404.787 409.197" xml:space="preserve">
<g>
	<path d="M399.91,115.405c-111.738,0-202.304,91.699-202.304,204.595c0,112.902,90.566,204.602,202.304,204.602
		c111.731,0,202.483-91.699,202.483-204.602S511.642,115.405,399.91,115.405L399.91,115.405z M399.91,125.734
		c106.349,0,192.435,86.803,192.435,194.266c0,107.469-86.086,194.451-192.435,194.451c-106.355,0-192.262-86.989-192.262-194.451
		S293.555,125.734,399.91,125.734L399.91,125.734z"/>
</g>
<path d="M506.611,411.403c2.854-3.457,28.549-28.793,28.549-28.793s9.406-12.373-0.093-21.504
	c-9.502-9.133-80.036-78.218-80.036-78.218l8.28-7.779c0,0,5.461,2.987,8.464,0.397c3-2.592,4.133-4.036,4.133-4.036
	s3.568-4.597,0.109-8.597c0,0,2.563-4.169-1.04-7.883c-3.597-3.707-3.597-3.707-3.597-3.707l4.28-4.75l17.145,20.138
	c0,0,4.175,4.14,8.027,0.253l-23.744-22.116l2.424-2.304l-1.441-1.574l-1.574-1.441l-2.299,2.428l-22.121-23.748
	c-3.885,3.854,0.255,8.029,0.255,8.029l20.138,17.145l-4.745,4.284c0,0,0,0-3.712-3.601s-7.881-1.038-7.881-1.038
	c-3.998-3.457-8.599,0.106-8.599,0.106s-1.439,1.142-4.031,4.138c-2.594,2.998,0.392,8.459,0.392,8.459l-7.776,8.282
	c0,0-69.083-70.537-78.218-80.036c-9.133-9.501-21.504-0.093-21.504-0.093s-25.336,25.695-28.793,28.549
	c-3.455,2.852,0.829,7.455,0.829,7.455s72.794,73.42,76.511,76.591c3.712,3.171,9.752-1.393,14.353-4.814
	c4.603-3.419,4.88-1.124,4.88-1.124c1.998,2.299-0.592,4.583-0.592,4.583l-62.249,74.568c0,0-19.697-19.87-24.551-25.052
	c-4.852-5.18-11.459-2.625-11.459-2.625s-8.61,1.967-18.369,5.65c-9.765,3.69-2.639,13.18-2.639,13.18s20.841,20.442,27.123,27.065
	c6.282,6.619,18.373-5.371,18.373-5.371L312.415,406.5l-0.53,0.53l0.304-0.224l-0.213,0.315l0.528-0.528l23.997-17.402
	c0,0-11.989,12.091-5.368,18.375c6.621,6.28,27.068,27.125,27.068,27.125s9.49,7.127,13.176-2.643
	c3.685-9.757,5.652-18.367,5.652-18.367s2.554-6.608-2.628-11.462c-5.18-4.856-25.048-24.551-25.048-24.551l74.568-62.249
	c0,0,2.282-2.592,4.581-0.594c0,0,2.295,0.277-1.124,4.88c-3.424,4.603-7.985,10.641-4.816,14.351
	c3.169,3.714,76.591,76.511,76.591,76.511S503.755,414.853,506.611,411.403z"/>
</svg>
