<?xml version="1.0" encoding="utf-8"?>
<!-- Generator: Adobe Illustrator 17.1.0, SVG Export Plug-In . SVG Version: 6.00 Build 0)  -->
<!DOCTYPE svg PUBLIC "-//W3C//DTD SVG 1.1//EN" "http://www.w3.org/Graphics/SVG/1.1/DTD/svg11.dtd">
<svg version="1.1" id="Layer_1" xmlns="http://www.w3.org/2000/svg" xmlns:xlink="http://www.w3.org/1999/xlink" x="0px" y="0px"
	 width="100px" height="100px" viewBox="350 270.003 100 100" enable-background="new 350 270.003 100 100" xml:space="preserve">
<g>
	<path d="M399.978,270.003c-27.359,0-49.535,22.453-49.535,50.096c0,27.645,22.176,50.098,49.535,50.098
		c27.358,0,49.579-22.453,49.579-50.098S427.336,270.003,399.978,270.003L399.978,270.003z M399.978,272.532
		c26.04,0,47.119,21.254,47.119,47.567c0,26.314-21.079,47.612-47.119,47.612c-26.042,0-47.076-21.3-47.076-47.612
		S373.937,272.532,399.978,272.532L399.978,272.532z M400.11,282.383c-6.412,0-11.11,2.883-14.052,6.79
		c-2.899,3.949-4.217,8.874-4.172,13.223c0,0.666,0.569,1.287,1.229,1.287s1.274-0.621,1.274-1.287
		c-0.044-3.816,1.142-8.298,3.643-11.715c2.548-3.416,6.369-5.812,12.077-5.812c7.597,0,12.646,4.394,14.492,9.984
		c1.887,5.591,0.527,12.425-5.315,17.438c-2.326,1.953-4.961,3.772-7.025,6.033c-2.062,2.263-3.557,5.06-3.469,8.564
		c0,0,0,0,0,0.045c-0.044,7.675-0.132,9.228-0.132,9.228c0,0.621,0.57,1.243,1.186,1.288c0.658,0,1.274-0.578,1.274-1.243
		c0,0,0.088-1.509,0.132-9.274c0-0.045,0-0.045,0-0.045c-0.088-2.794,1.011-4.836,2.854-6.832c1.801-1.998,4.347-3.817,6.762-5.858
		c6.588-5.591,8.301-13.622,6.105-20.145C414.777,287.485,408.63,282.383,400.11,282.383L400.11,282.383z M399.978,347.654
		c-1.362,0-2.459,1.153-2.459,2.485c0,1.374,1.097,2.528,2.459,2.528s2.459-1.153,2.459-2.528
		C402.438,348.808,401.34,347.654,399.978,347.654L399.978,347.654z"/>
</g>
</svg>
